<svg width="174" height="150" viewBox="0 0 174 150" fill="none" xmlns="http://www.w3.org/2000/svg">
<rect width="173.182" height="150" fill="white"/>
<path fill-rule="evenodd" clip-rule="evenodd" d="M86.5644 70.6876H72.6875L86.6838 61.5815L86.5644 70.6876ZM145.495 80.3917C145.24 74.8845 142.169 70.5667 136.302 70.5623H114.409V63.2965H145.521V52.1999H102.906V70.6884L98.0044 70.6876L98.0231 52.1999H83.9043L54.0077 70.6876H38.9439V63.2965H56.7338L74.9573 52.1999H27.6607V96.0769H38.9439V81.7746H54.6753V81.7842H86.6838V98.4813H98.1242V81.7842H134.216V86.5772H103.006V98.4813H136.302C142.328 98.4813 145.508 93.882 145.508 88.2305L145.495 80.3917ZM156.136 41.5908H17.0454V106.686H49.56V92.3921L76.0685 92.3941V109.091H136.301C147.787 109.091 156.123 100.314 156.123 88.2226L156.136 41.5908ZM150.316 47.4069V68.0891H144.167C147.767 70.5472 150.038 74.8126 150.285 80.1702L150.29 80.2768L150.304 88.2226C150.304 97.0888 144.546 103.274 136.301 103.274H81.8876V86.5772H50.1158V86.568H43.7401V100.87H22.8645V47.4069H150.316Z" fill="#3D3D3D"/>
</svg>
