<svg width="174" height="150" viewBox="0 0 174 150" fill="none" xmlns="http://www.w3.org/2000/svg">
<g clip-path="url(#clip0_588_185)">
<rect width="173.182" height="150" fill="white"/>
<path d="M20.946 81.7353C23.1757 85.6278 24.385 86.9127 25.8589 88.2355V88.5H20.039V88.2355C21.0216 87.2529 20.228 85.8924 18.7541 83.2847L14.7104 76.2177C14.1435 76.2555 13.5766 76.2933 13.0098 76.2933H9.49513V86.0058C9.49513 87.3285 9.75967 87.8953 10.3265 88.2355C10.3265 88.311 10.3265 88.5 10.3265 88.5H5.67817C5.67817 88.5 5.67817 88.311 5.67817 88.2355C6.24505 87.8953 6.50959 87.3285 6.50959 86.0058V64.5779C6.50959 63.2174 6.24505 62.6883 5.67817 62.3482C5.67817 62.2726 5.67817 62.0458 5.67817 62.0458H13.0098C18.8675 62.0458 24.1583 64.2378 24.1583 69.1885C24.1583 72.7409 21.3239 74.895 17.5448 75.7642L20.946 81.7353ZM13.0098 75.991C20.1524 75.991 21.1728 72.0984 21.1728 69.1885C21.1728 66.2407 20.1902 62.3482 13.0098 62.3482H9.49513V75.991H13.0098ZM45.3588 86.0058C45.51 87.3663 45.8501 87.8953 46.417 88.2355C46.417 88.311 46.417 88.5 46.417 88.5H41.7686C41.7686 88.5 41.7686 88.311 41.7686 88.2355C42.3355 87.8953 42.5245 87.2529 42.4111 86.0058C42.2599 84.7586 41.7308 78.3718 41.5419 76.4067C41.2395 73.5723 39.8412 70.36 36.5912 71.0025C32.3585 71.8339 31.6027 79.7323 31.6027 82.9068V86.0058C31.6027 87.3285 31.8672 87.8953 32.4341 88.2355C32.4341 88.311 32.4341 88.5 32.4341 88.5H27.7479C27.7479 88.5 27.7479 88.311 27.7479 88.2355C28.3526 87.8953 28.6171 87.3285 28.6171 86.0058V64.1622C28.6171 62.8395 28.5037 62.4615 27.7479 62.3482C27.7479 62.2726 27.7479 62.0458 27.7479 62.0458L31.3003 61.2522H31.6027V79.6945C32.0562 75.4619 33.3789 70.3222 38.2918 70.3222C41.3529 70.3222 43.9983 72.4385 44.4518 76.9735C44.8675 80.6393 45.2077 84.6075 45.3588 86.0058ZM65.5287 88.2355C65.5287 88.311 65.5287 88.5 65.5287 88.5H61.7117V83.2092C60.7291 86.5348 58.6506 88.7267 55.0226 88.7267C51.9237 88.7267 48.9003 87.2529 48.409 84.5319C47.7666 80.6771 50.0719 78.4096 52.9818 77.2003C51.9992 75.0084 53.1708 70.3222 58.2349 70.3222C61.3716 70.3222 64.6972 71.985 64.6972 76.6334V86.0058C64.6972 87.3285 64.9618 87.8953 65.5287 88.2355ZM57.8947 70.7001C54.4935 70.7001 52.226 73.988 53.3597 77.0491C55.4005 76.2933 57.668 76.0288 59.4442 76.0288C60.3134 76.0288 61.0692 76.1799 61.7117 76.3689V76.1043C61.7117 73.2322 60.5779 70.7001 57.8947 70.7001ZM55.9296 88.2355C59.2174 88.0465 60.9559 85.2499 61.7117 82.5289V76.709C61.5227 76.6334 60.6157 76.3689 59.4442 76.3689C55.3249 76.3689 49.7317 78.4096 51.3568 85.061C51.8481 87.1017 54.04 88.3488 55.9296 88.2355ZM79.8753 70.3222C82.9742 70.3222 86.7534 72.9676 86.9046 77.7672C87.1313 87.1395 78.4392 88.7267 74.2066 88.7267C73.3751 88.7267 72.6193 88.5756 71.9769 88.3866V94.8868C71.9769 96.2095 72.0902 96.5874 72.8083 96.7008C72.8083 96.7764 72.8083 96.9653 72.8083 96.9653L69.2559 97.7967H68.9913V73.2322C68.9913 71.9095 68.8779 71.5315 68.1599 71.4182C68.1599 71.3426 68.1599 71.1536 68.1599 71.1536L71.7123 70.3222H71.9769V80.6771C72.6571 76.2933 74.5845 70.3222 79.8753 70.3222ZM74.2444 88.5C77.8724 88.4622 84.4859 86.875 83.9568 77.2381C83.7679 73.9502 81.4626 70.36 78.2125 71.0025C73.9798 71.8339 71.9769 79.7323 71.9769 82.9068V88.1599C72.1658 88.2355 73.035 88.5378 74.2444 88.5ZM96.5358 70.3222C98.501 70.3222 101.071 71.5693 102.582 72.7409L101.827 76.2177H101.638C100.466 73.0054 98.0475 70.6623 95.8934 70.6623C93.3235 70.6623 91.8874 72.0984 91.6985 73.6479C91.1694 78.712 103.905 77.3515 103.489 83.5115C103.263 86.497 100.466 88.7267 96.2335 88.7267C93.1724 88.7267 90.9049 87.7064 88.8641 86.1947L89.6577 82.4155H89.8467C91.1316 85.061 93.966 88.1977 97.3294 88.1977C100.05 88.1977 102.091 86.7994 102.318 85.1743C103.036 80.2236 89.8467 82.4155 90.7537 75.0084C91.056 72.5519 92.4165 70.3222 96.5358 70.3222ZM116.045 70.3222C121.11 70.3222 125.493 73.4967 125.493 78.712C125.493 84.7586 120.316 88.7267 115.252 88.7267C110.15 88.7267 105.804 85.6278 105.804 80.337C105.804 74.1014 110.981 70.3222 116.045 70.3222ZM118.162 88.0465C122.47 86.7994 123.642 82.0754 122.319 77.5026C120.996 72.9676 117.444 69.7553 113.136 71.0025C108.827 72.2496 107.656 76.9735 108.978 81.5463C110.301 86.0813 113.854 89.3314 118.162 88.0465ZM146.914 88.2355C146.914 88.311 146.914 88.5 146.914 88.5H143.098V78.3718C142.379 82.7557 140.452 88.7267 135.161 88.7267C132.1 88.7267 128.321 86.0813 128.17 81.244C127.943 71.9095 136.635 70.3222 140.83 70.3222C141.699 70.3222 142.455 70.4734 143.098 70.6623V64.1622C143.098 62.8395 142.984 62.4615 142.228 62.3482C142.228 62.2726 142.228 62.0458 142.228 62.0458L145.819 61.2522H146.083V86.0058C146.083 87.3285 146.348 87.8953 146.914 88.2355ZM136.862 88.0465C141.095 87.2151 143.098 79.3166 143.098 76.1421V70.8513C142.909 70.8135 142.039 70.5112 140.83 70.5112C137.164 70.5867 130.588 72.174 131.118 81.8109C131.307 85.0988 133.612 88.6512 136.862 88.0465ZM167.299 70.6245C165.674 72.2874 164.351 74.1392 162.953 77.616C162.953 77.616 159.929 85.1365 158.569 88.5C157.208 91.9012 155.508 94.7356 152.522 94.7356C150.481 94.7356 149.007 93.7908 148.063 92.0524L151.01 89.3692L151.237 89.5582C150.859 91.6745 151.275 94.5845 153.354 94.3577C155.319 94.131 156.868 91.6367 158.115 88.8401L153.278 77.4648C151.691 73.7613 150.897 72.1362 149.083 70.6245V70.3222H154.865V70.6245C153.92 71.6449 154.223 72.6653 155.092 74.7816L159.589 85.2877L162.688 77.5782C164.086 74.1014 164.54 72.0228 162.839 70.6245V70.3222H167.299V70.6245Z" fill="#3D3D3D"/>
</g>
<defs>
<clipPath id="clip0_588_185">
<rect width="173.182" height="150" fill="white"/>
</clipPath>
</defs>
</svg>
