<svg width="162" height="94" viewBox="0 0 162 94" fill="none" xmlns="http://www.w3.org/2000/svg">
<path d="M19.75 3.22449C17.9074 1.10842 14.9996 0 11.0266 0H0V45.2149H7.48546V26.8036H11.0266C14.9996 26.8036 17.9074 25.6952 19.75 23.5647V3.22449ZM14.7117 16.0793C14.7117 19.3038 13.4162 20.3978 11.0266 20.3978H7.48546V6.44899H11.0266C13.4162 6.44899 14.7117 7.48544 14.7117 10.7675V16.0793Z" fill="#462D81"/>
<path d="M39.7021 34.7939V32.246H41.1416V17.5054C40.1676 15.5429 39.6742 13.3768 39.7021 11.186C39.6529 8.98378 40.1473 6.80339 41.1416 4.83777V0.835938H34.3759V35.3841C34.3759 38.5798 33.0372 39.7027 30.7915 39.7027C28.5459 39.7027 27.2215 38.5511 27.2215 35.3841V0.835938H20.1968V34.9235C20.1968 42.121 23.7811 46.1516 30.6619 46.1516C35.7434 46.1516 39.0255 43.9348 40.393 39.9186C39.8591 38.2638 39.6014 36.5324 39.6301 34.7939" fill="#462D81"/>
<path d="M58.8467 25.9823C57.3731 23.9879 55.6726 22.1715 53.7796 20.5698C49.1732 16.5535 47.7049 14.1927 47.7049 10.9395C47.7049 7.68616 48.9861 6.62093 51.2173 6.62093C53.4486 6.62093 54.7297 7.83012 54.7297 11.0258V13.3146H58.8467V3.23809C57.8597 2.21242 56.6601 1.4154 55.332 0.903092C54.004 0.390781 52.5798 0.175608 51.1597 0.272698C44.322 0.272698 40.6945 4.3609 40.6945 11.3857C40.6945 16.496 42.609 20.1235 48.4822 25.2913C53.0743 29.322 54.4706 31.6828 54.4706 35.3679C54.4706 38.6932 53.0311 39.8304 50.843 39.8304C48.655 39.8304 47.2011 38.6932 47.2011 35.5118V32.4457H40.5649V34.9936C40.5649 42.1912 44.0054 46.2362 50.9006 46.2362C52.3643 46.3302 53.8311 46.109 55.2019 45.5874C56.5727 45.0659 57.8156 44.2563 58.8467 43.2132V25.9823Z" fill="#462D81"/>
<path d="M59.8408 0.332031H66.8656V18.513H74.3942V0.332031H81.4046V45H74.3942V24.9044H66.8656V45H59.8408V0.332031Z" fill="#462D81"/>
<path d="M76.9237 49.2471L57.5247 67.1543L59.1357 68.8996L78.5348 50.9924L76.9237 49.2471Z" fill="#462D81"/>
<path d="M104.693 23.6046L84.7649 42L86.376 43.7453L106.304 25.3499L104.693 23.6046Z" fill="#462D81"/>
<path d="M140.74 48.4395H148.485V86.2409H161.225V92.546H140.74V48.4395Z" fill="#462D81"/>
<path d="M100.593 49.5623C98.8652 47.3743 96.1446 46.2227 92.4162 46.2227H82.0518V92.9491H89.0766V73.9332H92.3874C96.1157 73.9332 98.8364 72.7816 100.564 70.5935L100.593 49.5623ZM95.871 62.849C95.871 66.1886 94.6475 67.2539 92.4162 67.2539H89.1054V52.8588H92.4162C94.6475 52.8588 95.871 53.924 95.871 57.2637V62.849Z" fill="#462D81"/>
<path d="M101.111 82.7709V48.7266H108.136V83.2747C108.136 86.4561 109.475 87.5933 111.706 87.5933C113.937 87.5933 115.291 86.4417 115.291 83.2747V48.7266H122.056V82.7709C122.056 89.9685 118.472 93.9991 111.577 93.9991C104.681 93.9991 101.111 89.9253 101.111 82.7709Z" fill="#462D81"/>
<path d="M125.064 48.2676H131.067V86.0691H137.214L137.041 92.3597H124.546L125.064 48.2676Z" fill="#462D81"/>
</svg>
