<svg width="159" height="159" viewBox="0 0 159 159" fill="none" xmlns="http://www.w3.org/2000/svg">
<circle cx="79.5" cy="79.5" r="79" stroke="black"/>
<g clip-path="url(#clip0_202_43)">
<path d="M63.3416 50.1617C62.8189 50.4565 62.6344 51.1186 62.9292 51.6412L93.5188 105.875L60.1581 96.5762C59.5803 96.4151 58.9813 96.7525 58.8201 97.3309C58.6589 97.9092 58.997 98.5078 59.5748 98.6688L95.0271 108.551C95.605 108.712 96.2039 108.375 96.3651 107.796L106.247 72.3428C106.409 71.7644 106.071 71.1658 105.493 71.0048C104.915 70.8437 104.316 71.1811 104.155 71.7594L95.0976 104.253L64.8212 50.5741C64.5265 50.0514 63.8643 49.8668 63.3416 50.1617Z" fill="black"/>
</g>
<path d="M60.8891 143.529C61.0217 143.003 61.0596 142.527 61.0027 142.103C60.9316 141.685 60.7906 141.315 60.5798 140.992C60.3584 140.666 60.0743 140.383 59.7276 140.144C59.3772 139.916 58.9838 139.727 58.5473 139.577C58.0364 139.401 57.5727 139.312 57.1563 139.311C56.7399 139.311 56.3781 139.377 56.0709 139.509C55.76 139.652 55.5021 139.849 55.2971 140.1C55.0814 140.347 54.9188 140.63 54.8093 140.95C54.656 141.397 54.6331 141.794 54.7404 142.141C54.8478 142.488 55.0372 142.803 55.3088 143.088C55.5662 143.379 55.8895 143.651 56.2788 143.904C56.6575 144.154 57.0539 144.404 57.4682 144.654C57.8681 144.911 58.2573 145.182 58.6357 145.467C59.0034 145.749 59.3121 146.064 59.5618 146.412C59.8008 146.757 59.9595 147.145 60.0376 147.577C60.1121 148.019 60.0526 148.523 59.8592 149.087C59.7241 149.482 59.5129 149.838 59.2254 150.155C58.9273 150.469 58.5693 150.715 58.1514 150.893C57.7228 151.067 57.2345 151.154 56.6864 151.156C56.1383 151.157 55.5449 151.048 54.9062 150.828C54.2568 150.604 53.7236 150.319 53.3066 149.973C52.879 149.623 52.5603 149.233 52.3504 148.803C52.1369 148.384 52.0215 147.939 52.0042 147.469C51.9868 146.998 52.0585 146.529 52.2191 146.06L53.257 146.418C53.1074 146.855 53.0576 147.26 53.1078 147.635C53.1473 148.006 53.2655 148.338 53.4623 148.633C53.659 148.927 53.9113 149.181 54.2191 149.394C54.5269 149.607 54.8618 149.776 55.2238 149.901C55.7773 150.092 56.2731 150.174 56.7111 150.146C57.1348 150.125 57.5004 150.031 57.8079 149.863C58.1154 149.695 58.3628 149.477 58.5502 149.208C58.7376 148.939 58.8558 148.646 58.9047 148.33C58.9686 147.935 58.9218 147.585 58.7643 147.281C58.6067 146.976 58.3832 146.691 58.0936 146.424C57.8004 146.168 57.468 145.922 57.0963 145.687C56.7103 145.459 56.3227 145.218 55.9334 144.964C55.5404 144.722 55.1707 144.463 54.8243 144.189C54.4672 143.911 54.1745 143.602 53.9461 143.261C53.7176 142.92 53.5768 142.532 53.5236 142.097C53.4561 141.669 53.5173 141.177 53.7071 140.623C54.0721 139.558 54.7223 138.859 55.6576 138.527C56.5929 138.194 57.7259 138.257 59.0565 138.716C59.6527 138.922 60.1789 139.192 60.6351 139.528C61.095 139.854 61.4583 140.235 61.725 140.672C61.9881 141.12 62.1476 141.61 62.2036 142.142C62.2452 142.68 62.1583 143.264 61.943 143.892L60.8891 143.529Z" fill="black"/>
<path d="M42.5999 137.819C42.4283 138.475 42.442 139.069 42.6409 139.602C42.8342 140.145 43.2227 140.586 43.8065 140.926C44.2541 141.187 44.692 141.319 45.1203 141.32C45.5486 141.322 45.9551 141.227 46.34 141.034C46.7192 140.851 47.0703 140.593 47.3933 140.26C47.7107 139.936 47.9822 139.58 48.2078 139.19C48.4392 138.79 48.6211 138.375 48.7535 137.944C48.8763 137.507 48.9229 137.078 48.8935 136.657C48.8641 136.236 48.7424 135.839 48.5286 135.467C48.309 135.105 47.9706 134.79 47.5133 134.524C46.8614 134.144 46.2365 134.021 45.6386 134.155C45.0309 134.283 44.4902 134.633 44.0164 135.204L43.0823 134.66C43.4028 134.286 43.7521 133.975 44.1304 133.726C44.4933 133.481 44.8843 133.312 45.3034 133.217C45.7071 133.126 46.1334 133.121 46.5821 133.2C47.0308 133.279 47.4936 133.457 47.9703 133.735C48.5736 134.086 49.0349 134.492 49.3542 134.951C49.6736 135.411 49.8728 135.899 49.9518 136.414C50.0253 136.939 49.989 137.484 49.8431 138.051C49.6972 138.618 49.4635 139.179 49.1419 139.734C48.8372 140.26 48.4737 140.72 48.0513 141.112C47.6135 141.509 47.1415 141.807 46.6352 142.007C46.1289 142.208 45.5996 142.29 45.0474 142.255C44.4798 142.224 43.9138 142.045 43.3495 141.716C42.4738 141.206 41.8897 140.585 41.5972 139.854C41.2949 139.118 41.3324 138.267 41.7096 137.3L42.5999 137.819Z" fill="black"/>
<path d="M40.3102 128.761L41.094 129.403L35.5681 136.187L34.7843 135.544L35.8191 134.274L35.793 134.252C35.1343 134.615 34.5498 134.762 34.0395 134.693C33.5133 134.626 32.9672 134.36 32.4012 133.896L33.0946 133.045C33.5316 133.418 33.9543 133.648 34.3626 133.735C34.7709 133.822 35.1652 133.811 35.5456 133.7C35.9173 133.583 36.2803 133.378 36.6344 133.086C36.9727 132.795 37.2948 132.462 37.6006 132.087L40.3102 128.761Z" fill="black"/>
<path d="M32.933 121.417C33.298 121.846 33.5734 122.309 33.7592 122.807C33.9375 123.297 34.007 123.808 33.9678 124.341C33.921 124.866 33.7543 125.399 33.4676 125.942C33.1809 126.484 32.7519 127.01 32.1804 127.52C31.7014 127.947 31.1999 128.281 30.6761 128.522C30.1439 128.77 29.6103 128.906 29.0753 128.931C28.5403 128.955 28.0165 128.857 27.5039 128.635C26.9829 128.421 26.4983 128.061 26.0502 127.555C25.5946 127.041 25.2912 126.512 25.14 125.968C24.9803 125.431 24.944 124.898 25.0309 124.368C25.1093 123.845 25.3064 123.337 25.622 122.845C25.9302 122.344 26.3238 121.879 26.8028 121.452C27.3238 120.987 27.8579 120.639 28.4051 120.408C28.9523 120.176 29.4966 120.061 30.0382 120.06C30.5722 120.052 31.0914 120.162 31.5956 120.392C32.0839 120.62 32.5297 120.962 32.933 121.417ZM27.5198 122.261C27.1332 122.606 26.8092 122.97 26.5477 123.354C26.2863 123.738 26.1121 124.128 26.0252 124.522C25.93 124.924 25.9341 125.327 26.0377 125.733C26.1413 126.138 26.3724 126.543 26.7309 126.948C27.0819 127.344 27.4643 127.614 27.8779 127.758C28.2756 127.901 28.6832 127.945 29.1006 127.89C29.5095 127.842 29.9194 127.71 30.3303 127.495C30.7327 127.287 31.1104 127.025 31.4634 126.711C31.8668 126.351 32.1997 125.971 32.4621 125.571C32.7086 125.17 32.8716 124.768 32.951 124.366C33.0304 123.963 33.014 123.562 32.902 123.164C32.79 122.766 32.5734 122.386 32.2523 122.024C31.9012 121.628 31.5268 121.358 31.1291 121.215C30.7155 121.071 30.3 121.026 29.8826 121.082C29.4653 121.137 29.0553 121.269 28.6529 121.477C28.2505 121.685 27.8728 121.946 27.5198 122.261Z" fill="black"/>
<path d="M27.619 114.944L17.471 121.646L16.9149 120.799L27.0629 114.097L27.619 114.944Z" fill="black"/>
<path d="M24.3879 109.565L13.6142 115.206L13.1463 114.307L23.9201 108.666L24.3879 109.565Z" fill="black"/>
<path d="M19.2246 97.2393L7.3055 99.6545L6.48523 95.5811C6.41854 95.25 6.364 94.9221 6.32161 94.5975C6.26818 94.2751 6.24345 93.9527 6.24742 93.6302C6.24036 93.3099 6.26863 92.994 6.33223 92.6824C6.39361 92.3597 6.49584 92.0403 6.63892 91.724C6.84583 91.2685 7.13342 90.8713 7.50166 90.5324C7.85888 90.1958 8.25479 89.9088 8.68941 89.6713C9.11078 89.4251 9.55318 89.2263 10.0166 89.0749C10.4668 88.9148 10.8905 88.7945 11.2879 88.714C11.6852 88.6334 12.0935 88.5794 12.513 88.5519C12.9302 88.5133 13.3486 88.5089 13.7681 88.5388C14.1766 88.5709 14.5819 88.6439 14.9839 88.7578C15.3726 88.8629 15.7437 89.0232 16.0973 89.2388C16.4619 89.4521 16.7713 89.7054 17.0256 89.9985C17.2777 90.2807 17.4956 90.5927 17.6793 90.9346C17.8498 91.2677 17.996 91.623 18.1179 92.0004C18.2288 92.38 18.3243 92.7686 18.4043 93.166L19.2246 97.2393ZM18.0377 96.3079L17.4942 93.6089C17.3919 93.1011 17.2688 92.632 17.1247 92.2017C16.9673 91.7625 16.7205 91.3357 16.3844 90.9212C16.1057 90.5641 15.7697 90.2932 15.3765 90.1087C14.9832 89.9241 14.5735 89.8003 14.1473 89.7373C13.7079 89.6655 13.2618 89.6467 12.8093 89.681C12.3545 89.7042 11.9229 89.7572 11.5146 89.8399C11.0842 89.9271 10.6538 90.0431 10.2235 90.1877C9.7821 90.3346 9.37833 90.5256 9.01215 90.7606C8.63493 90.9979 8.30745 91.2825 8.02972 91.6146C7.74094 91.9488 7.52843 92.3481 7.39218 92.8123C7.2757 93.2035 7.23877 93.6476 7.2814 94.1445C7.32403 94.6414 7.39536 95.1382 7.49539 95.635L8.03891 98.334L18.0377 96.3079Z" fill="black"/>
<path d="M17.2834 79.6989C17.2665 80.2618 17.1597 80.7899 16.9633 81.2834C16.7669 81.7656 16.4754 82.1906 16.0888 82.5582C15.7023 82.9146 15.2209 83.1968 14.6444 83.4049C14.068 83.613 13.3969 83.7131 12.6313 83.7052C11.9895 83.6987 11.3935 83.6081 10.8435 83.4336C10.2822 83.2589 9.79502 83.0005 9.38184 82.6585C8.96866 82.3164 8.64642 81.8908 8.41512 81.3817C8.17255 80.8725 8.05471 80.2801 8.06158 79.6045C8.06857 78.9176 8.1985 78.3221 8.45137 77.8179C8.69299 77.3137 9.02382 76.8948 9.44387 76.5612C9.85267 76.2276 10.3394 75.9848 10.904 75.8329C11.4687 75.6698 12.0719 75.5915 12.7138 75.5981C13.4119 75.6052 14.0414 75.7074 14.6025 75.9046C15.1635 76.1018 15.6449 76.3826 16.0466 76.7471C16.4484 77.1003 16.7593 77.5314 16.9794 78.0404C17.1883 78.538 17.2896 79.0908 17.2834 79.6989ZM12.7028 76.6791C12.1848 76.6737 11.7001 76.7251 11.2485 76.8331C10.797 76.9411 10.4067 77.1116 10.0778 77.3447C9.73758 77.5777 9.46988 77.879 9.27468 78.2487C9.07948 78.6183 8.97913 79.0733 8.97364 79.6138C8.96825 80.143 9.07058 80.6001 9.28062 80.9852C9.47952 81.3588 9.7523 81.6657 10.0989 81.9057C10.4343 82.1456 10.8267 82.3242 11.2759 82.4414C11.7139 82.5585 12.1694 82.6194 12.6423 82.6243C13.1827 82.6298 13.6844 82.573 14.1474 82.4539C14.5991 82.3234 14.9895 82.1359 15.3186 81.8916C15.6477 81.6472 15.9042 81.3401 16.0881 80.9704C16.272 80.6007 16.3665 80.1737 16.3714 79.6895C16.3768 79.1603 16.28 78.7089 16.0811 78.3352C15.8711 77.9502 15.5927 77.6377 15.2461 77.3976C14.8994 77.1576 14.5071 76.9791 14.0691 76.862C13.6311 76.7449 13.1757 76.6839 12.7028 76.6791Z" fill="black"/>
<path d="M17.7366 64.0137L11.0166 60.1542L11.2405 59.1485L19.1616 63.831L18.9267 64.8862L11.3421 65.143L11.3348 65.1759L18.0824 68.6782L17.8181 69.8653L8.70037 70.5575L8.92061 69.5683L16.6976 68.9911L9.85297 65.3806L10.0989 64.2759L17.7366 64.0137Z" fill="black"/>
<path d="M21.5774 56.7062L21.1567 57.6282L13.2053 53.9774L13.626 53.0554L14.7312 53.5629C14.5106 53.0155 14.3664 52.4909 14.2984 51.9888C14.2351 51.4765 14.3297 50.9438 14.5821 50.3906C14.8065 49.8988 15.1015 49.4829 15.4671 49.1427C15.8225 48.7979 16.2754 48.5784 16.8258 48.4842C17.2012 48.4211 17.5494 48.4447 17.8704 48.5549C18.1859 48.6502 18.5073 48.773 18.8348 48.9233L24.0385 51.3126L23.6178 52.2346L18.4295 49.8524C17.7131 49.5235 17.1034 49.4356 16.6003 49.5887C16.0973 49.7418 15.6774 50.1872 15.3409 50.9248C15.21 51.2116 15.1368 51.494 15.1214 51.7719C15.0958 52.0451 15.1102 52.312 15.1646 52.5724C15.2238 52.8226 15.315 53.0565 15.4385 53.2743C15.5619 53.492 15.7096 53.6837 15.8815 53.8494C16.0953 54.0591 16.3152 54.2282 16.5412 54.3568C16.7672 54.4853 17.0184 54.613 17.2947 54.7399L21.5774 56.7062Z" fill="black"/>
<path d="M28.2272 38.3976C28.6561 38.7293 29.0762 38.9537 29.4874 39.0707C29.8978 39.1717 30.2926 39.1897 30.6716 39.1246C31.0582 39.0511 31.4295 38.9025 31.7854 38.6787C32.133 38.4474 32.4622 38.161 32.7729 37.8195C33.1367 37.4198 33.4014 37.0286 33.5671 36.6458C33.7327 36.2631 33.8158 35.9041 33.8165 35.5687C33.8088 35.2258 33.7308 34.9101 33.5824 34.6214C33.4415 34.3245 33.2466 34.062 32.9974 33.8338C32.6486 33.5144 32.2943 33.3349 31.9344 33.2954C31.5745 33.2559 31.2106 33.3044 30.8428 33.4409C30.4742 33.5615 30.0968 33.7503 29.7106 34.0073C29.332 34.2561 28.9461 34.5211 28.553 34.8024C28.1592 35.0678 27.7568 35.3176 27.3457 35.5519C26.9421 35.7778 26.5315 35.9362 26.1138 36.027C25.7038 36.1095 25.2856 36.1006 24.8592 36.0003C24.4245 35.8923 23.9871 35.6368 23.547 35.2338C23.2398 34.9524 22.9976 34.6161 22.8207 34.225C22.6513 33.8256 22.5682 33.3983 22.5714 32.9431C22.5821 32.4796 22.6954 31.9955 22.9111 31.4908C23.1269 30.986 23.4622 30.4838 23.917 29.9841C24.3793 29.4761 24.8516 29.0994 25.3338 28.8539C25.8236 28.6001 26.3068 28.4624 26.7833 28.4407C27.2515 28.4114 27.7044 28.4826 28.142 28.6543C28.5795 28.826 28.981 29.0791 29.3464 29.4137L28.6074 30.2257C28.2669 29.9139 27.9153 29.7064 27.5525 29.6031C27.1972 29.4916 26.846 29.4677 26.4987 29.5314C26.1514 29.5951 25.8192 29.7259 25.5019 29.924C25.1846 30.122 24.8971 30.3626 24.6394 30.6458C24.2453 31.0788 23.9741 31.5023 23.8258 31.9161C23.6768 32.3141 23.6182 32.688 23.65 33.0378C23.6819 33.3876 23.7837 33.7022 23.9556 33.9818C24.1275 34.2614 24.3486 34.4868 24.6191 34.6581C24.9552 34.8743 25.2938 34.9707 25.635 34.9472C25.9761 34.9237 26.3261 34.8319 26.6849 34.6719C27.0354 34.5042 27.392 34.2964 27.7547 34.0484C28.1168 33.7845 28.4909 33.524 28.8771 33.2669C29.255 33.0022 29.6382 32.7653 30.0266 32.556C30.4225 32.3384 30.8218 32.1925 31.2243 32.1183C31.6268 32.0441 32.0378 32.0693 32.4573 32.1939C32.876 32.3026 33.3013 32.5547 33.7332 32.9501C34.5636 33.7107 34.9457 34.5874 34.8794 35.5803C34.8132 36.5731 34.3064 37.5901 33.359 38.6311C32.9345 39.0974 32.4781 39.4734 31.9897 39.7591C31.5097 40.0524 31.0166 40.2344 30.5105 40.3054C29.9961 40.3687 29.4845 40.3201 28.9759 40.1597C28.4665 39.9833 27.9668 39.6707 27.4768 39.222L28.2272 38.3976Z" fill="black"/>
<path d="M40.711 23.8246C40.1791 23.4057 39.6299 23.1818 39.0634 23.1529C38.4903 23.1149 37.9322 23.2969 37.3892 23.6989C36.9728 24.0071 36.6788 24.3579 36.5069 24.7513C36.335 25.1448 36.2608 25.557 36.2843 25.9879C36.3011 26.4098 36.3978 26.8356 36.5742 27.2654C36.7439 27.6862 36.9623 28.0779 37.2292 28.4407C37.5028 28.8126 37.8105 29.1453 38.1522 29.4387C38.5029 29.7254 38.8768 29.939 39.2737 30.0795C39.6706 30.22 40.0818 30.2658 40.5073 30.217C40.926 30.1592 41.3481 29.9728 41.7735 29.6579C42.3798 29.209 42.7406 28.6828 42.8557 28.0792C42.9798 27.4689 42.8748 26.8321 42.5406 26.1688L43.4094 25.5256C43.624 25.9692 43.7699 26.4146 43.8472 26.8617C43.9269 27.2931 43.9268 27.7205 43.8469 28.1439C43.7694 28.5516 43.6054 28.9462 43.3549 29.3278C43.1044 29.7094 42.7575 30.0643 42.314 30.3926C41.7529 30.808 41.1986 31.0712 40.6512 31.1823C40.1038 31.2933 39.5788 31.2827 39.0761 31.1505C38.5667 31.0092 38.0819 30.7587 37.6215 30.399C37.1611 30.0393 36.7408 29.6009 36.3604 29.084C36 28.5942 35.7242 28.0768 35.533 27.5319C35.3441 26.9712 35.2587 26.418 35.2766 25.8723C35.2945 25.3266 35.4292 24.8066 35.6806 24.3123C35.9344 23.8022 36.3237 23.3528 36.8486 22.9642C37.6631 22.3612 38.4628 22.0704 39.2475 22.0919C40.0412 22.1067 40.8051 22.4799 41.5391 23.2115L40.711 23.8246Z" fill="black"/>
<path d="M49.9046 25.3061L49.0048 25.7724L44.9988 17.994L45.8986 17.5277L46.6488 18.9843L46.6788 18.9687C46.6091 18.2185 46.7073 17.6223 46.9735 17.1799C47.2445 16.7224 47.7049 16.3253 48.3548 15.9885L48.8575 16.9646C48.3424 17.2188 47.9638 17.5165 47.7215 17.8577C47.4792 18.1988 47.3328 18.5664 47.2824 18.9603C47.242 19.3491 47.2849 19.7644 47.4111 20.2063C47.5422 20.6329 47.7186 21.0615 47.9403 21.492L49.9046 25.3061Z" fill="black"/>
<path d="M59.5573 21.4215C59.0191 21.5873 58.4849 21.6569 57.9548 21.6303C57.4353 21.6001 56.9395 21.4614 56.4673 21.2141C56.0058 20.9633 55.5839 20.5986 55.2017 20.1199C54.8196 19.6413 54.5092 19.0382 54.2705 18.3107C54.0704 17.7008 53.9646 17.1073 53.953 16.53C53.9379 15.9421 54.0258 15.3973 54.2168 14.8955C54.4077 14.3937 54.7069 13.9511 55.1144 13.5676C55.5183 13.1733 56.0411 12.8704 56.6827 12.6586C57.335 12.4433 57.9403 12.3739 58.4987 12.4505C59.0536 12.5163 59.5564 12.6942 60.007 12.9842C60.4542 13.2635 60.8403 13.646 61.1655 14.1315C61.5014 14.6136 61.7694 15.1595 61.9695 15.7694C62.1871 16.4328 62.2927 17.0619 62.2864 17.6569C62.2802 18.2519 62.1691 18.7984 61.9533 19.2966C61.7481 19.7912 61.4401 20.2249 61.0291 20.5977C60.6253 20.9563 60.1347 21.2309 59.5573 21.4215ZM60.9429 16.1082C60.7815 15.616 60.5771 15.1736 60.3298 14.7809C60.0824 14.3882 59.7956 14.0738 59.4693 13.8377C59.1394 13.5908 58.7682 13.4346 58.3557 13.3692C57.9432 13.3038 57.4803 13.3558 56.967 13.5252C56.4644 13.6911 56.0647 13.9357 55.7678 14.259C55.4781 14.5681 55.2754 14.9255 55.1597 15.3313C55.0404 15.7264 54.9975 16.1556 55.031 16.6189C55.0609 17.0715 55.1496 17.5225 55.297 17.9718C55.4655 18.4854 55.6805 18.9421 55.942 19.342C56.2107 19.7276 56.5136 20.0367 56.8506 20.2694C57.1877 20.502 57.5607 20.6457 57.9697 20.7004C58.3787 20.7551 58.8132 20.7066 59.273 20.5548C59.7755 20.3889 60.1717 20.1515 60.4614 19.8424C60.7582 19.5191 60.9645 19.1545 61.0803 18.7487C61.196 18.3429 61.2389 17.9137 61.209 17.4612C61.179 17.0086 61.0903 16.5576 60.9429 16.1082Z" fill="black"/>
<path d="M67.5883 19.0947L65.4964 7.11465L66.4946 6.93927L68.5865 18.9193L67.5883 19.0947Z" fill="black"/>
<path d="M73.797 18.2538L72.9219 6.12396L73.9327 6.05058L74.8078 18.1804L73.797 18.2538Z" fill="black"/>
<path d="M87.1361 18.3966L89.6581 6.49963L93.7218 7.36644C94.0521 7.43691 94.3747 7.51723 94.6894 7.60738C95.0064 7.68652 95.3121 7.79203 95.6065 7.9239C95.9031 8.04475 96.1818 8.1963 96.4424 8.37855C96.7141 8.56315 96.9666 8.78395 97.1999 9.04096C97.5356 9.41193 97.7858 9.83374 97.9503 10.3064C98.1172 10.768 98.2232 11.2454 98.2683 11.7386C98.3267 12.2231 98.3333 12.7081 98.2879 13.1935C98.2559 13.6703 98.1979 14.1069 98.1138 14.5035C98.0298 14.9 97.917 15.2962 97.7755 15.6921C97.6451 16.0903 97.4827 16.4759 97.2886 16.849C97.0967 17.211 96.8686 17.5538 96.6043 17.8774C96.3534 18.1923 96.0588 18.4692 95.7204 18.7079C95.3797 18.9576 95.0243 19.1408 94.6542 19.2576C94.2952 19.3768 93.9222 19.4526 93.5355 19.4853C93.162 19.5093 92.7779 19.5022 92.3832 19.464C91.9907 19.4148 91.5962 19.348 91.1998 19.2634L87.1361 18.3966ZM88.4625 17.6778L91.1552 18.2522C91.6617 18.3602 92.1411 18.4337 92.5933 18.4726C93.0589 18.5028 93.5486 18.4461 94.0625 18.3024C94.501 18.1887 94.8831 17.9881 95.2087 17.7006C95.5344 17.4132 95.8109 17.0864 96.0381 16.7204C96.2787 16.3457 96.4732 15.9439 96.6217 15.515C96.7812 15.0885 96.9041 14.6715 96.9905 14.2639C97.0816 13.8343 97.1463 13.3933 97.1846 12.9409C97.2253 12.4775 97.2106 12.0311 97.1405 11.6016C97.0727 11.1612 96.9417 10.7475 96.7474 10.3607C96.5555 9.96279 96.2737 9.60907 95.9019 9.29949C95.5892 9.03705 95.1964 8.82661 94.7235 8.66817C94.2506 8.50974 93.7664 8.37766 93.2708 8.27195L90.5782 7.6976L88.4625 17.6778Z" fill="black"/>
<path d="M103.967 23.5933C103.457 23.3533 103.015 23.0448 102.641 22.6677C102.276 22.2952 102.002 21.8583 101.818 21.3568C101.645 20.8598 101.577 20.3053 101.614 19.6932C101.652 19.081 101.826 18.425 102.137 17.7252C102.398 17.1386 102.717 16.6276 103.095 16.1922C103.478 15.7466 103.908 15.4022 104.385 15.1593C104.863 14.9163 105.381 14.7901 105.94 14.7807C106.503 14.761 107.093 14.889 107.71 15.1646C108.337 15.4448 108.831 15.8015 109.194 16.2346C109.56 16.6574 109.813 17.1282 109.953 17.6467C110.096 18.1551 110.126 18.6986 110.042 19.2775C109.967 19.861 109.8 20.4461 109.539 21.0327C109.256 21.6707 108.913 22.208 108.509 22.6445C108.106 23.081 107.658 23.411 107.164 23.6345C106.681 23.8626 106.162 23.9762 105.608 23.9753C105.069 23.9687 104.522 23.8414 103.967 23.5933ZM108.552 20.5917C108.763 20.1183 108.908 19.6528 108.988 19.1952C109.068 18.7376 109.066 18.3113 108.983 17.9164C108.904 17.5112 108.734 17.1453 108.472 16.8188C108.211 16.4922 107.833 16.2187 107.339 15.9982C106.856 15.7823 106.397 15.694 105.96 15.7334C105.539 15.767 105.149 15.8951 104.791 16.1177C104.438 16.33 104.119 16.619 103.834 16.9847C103.553 17.3401 103.316 17.734 103.124 18.1662C102.905 18.6602 102.758 19.1434 102.684 19.6159C102.624 20.0827 102.641 20.5159 102.735 20.9154C102.829 21.3149 103.009 21.6728 103.275 21.989C103.541 22.3053 103.895 22.5622 104.337 22.7597C104.82 22.9756 105.273 23.0667 105.694 23.0331C106.131 22.9937 106.528 22.8628 106.885 22.6402C107.243 22.4176 107.562 22.1286 107.843 21.7732C108.124 21.4178 108.36 21.0239 108.552 20.5917Z" fill="black"/>
<path d="M118.136 30.2657L124.333 25.6286L125.166 26.2357L117.739 31.6485L116.865 31.0116L119.635 23.9375L119.607 23.9176L113.726 28.7226L112.744 28.0061L115.721 19.349L116.54 19.9461L113.988 27.3249L120.007 22.4739L120.921 23.1407L118.136 30.2657Z" fill="black"/>
<path d="M123.276 36.7106L122.599 35.9562L129.094 30.0939L129.771 30.8483L128.868 31.6631C129.457 31.6782 129.994 31.7544 130.48 31.8919C130.974 32.0377 131.424 32.337 131.83 32.7896C132.191 33.1919 132.455 33.6291 132.621 34.101C132.795 34.5654 132.816 35.0696 132.684 35.6137C132.593 35.9842 132.433 36.2952 132.205 36.5467C131.993 36.799 131.753 37.0459 131.485 37.2874L127.235 41.1239L126.558 40.3695L130.796 36.5443C131.381 36.0161 131.704 35.4901 131.763 34.9662C131.823 34.4422 131.582 33.8785 131.04 33.275C130.83 33.0403 130.6 32.8605 130.352 32.7356C130.112 32.6032 129.863 32.5101 129.603 32.4565C129.35 32.4112 129.1 32.402 128.852 32.4289C128.604 32.4557 128.37 32.5152 128.15 32.6075C127.873 32.7206 127.631 32.8556 127.424 33.0124C127.217 33.1691 127 33.3494 126.774 33.5531L123.276 36.7106Z" fill="black"/>
<path d="M137.36 50.119C136.885 50.3821 136.513 50.6796 136.242 51.0116C135.986 51.3492 135.812 51.7053 135.721 52.0799C135.634 52.4648 135.622 52.8654 135.685 53.2816C135.758 53.6932 135.889 54.1097 136.078 54.5311C136.298 55.0245 136.551 55.4233 136.835 55.7275C137.119 56.0317 137.415 56.2506 137.721 56.3843C138.038 56.5133 138.358 56.5667 138.681 56.5447C139.009 56.5329 139.327 56.4576 139.635 56.3189C140.066 56.1246 140.372 55.8698 140.551 55.5543C140.731 55.2387 140.831 54.8847 140.853 54.4921C140.89 54.1051 140.867 53.683 140.786 53.2256C140.709 52.7785 140.62 52.3184 140.52 51.8451C140.434 51.3774 140.365 50.908 140.315 50.4368C140.269 49.9758 140.288 49.5352 140.371 49.1148C140.459 48.7047 140.633 48.3235 140.895 47.971C141.167 47.6138 141.575 47.3127 142.119 47.0676C142.499 46.8965 142.903 46.8071 143.332 46.7994C143.765 46.802 144.189 46.8951 144.604 47.0785C145.024 47.2723 145.422 47.5686 145.797 47.9674C146.173 48.3662 146.499 48.8739 146.775 49.4906C147.056 50.1175 147.213 50.7015 147.245 51.2427C147.282 51.794 147.216 52.2933 147.046 52.7403C146.886 53.1828 146.64 53.5713 146.309 53.9058C145.978 54.2403 145.586 54.5093 145.134 54.7128L144.686 53.7107C145.107 53.5211 145.437 53.2798 145.676 52.9869C145.919 52.7043 146.081 52.3906 146.161 52.0458C146.241 51.701 146.254 51.3433 146.199 50.9728C146.144 50.6023 146.039 50.2423 145.882 49.8929C145.643 49.3584 145.363 48.9409 145.044 48.6402C144.739 48.3453 144.42 48.143 144.088 48.0336C143.755 47.9241 143.426 47.893 143.102 47.9402C142.778 47.9875 142.483 48.1016 142.219 48.2824C141.887 48.506 141.664 48.7793 141.55 49.1026C141.435 49.4258 141.38 49.7842 141.383 50.1778C141.397 50.5668 141.445 50.9774 141.527 51.4096C141.625 51.8474 141.714 52.295 141.795 52.7524C141.887 53.2051 141.951 53.6517 141.988 54.0921C142.029 54.5428 142.004 54.968 141.911 55.3678C141.819 55.7676 141.632 56.1358 141.351 56.4723C141.085 56.8146 140.685 57.1059 140.151 57.3464C139.124 57.8088 138.17 57.8126 137.287 57.3578C136.405 56.903 135.677 56.0332 135.102 54.7485C134.844 54.1729 134.682 53.6038 134.615 53.0411C134.538 52.483 134.568 51.957 134.704 51.4632C134.851 50.9647 135.1 50.5133 135.449 50.1089C135.813 49.7102 136.299 49.3744 136.904 49.1015L137.36 50.119Z" fill="black"/>
<path d="M145.717 67.3908C146.313 67.0678 146.737 66.6517 146.99 66.1424C147.253 65.6306 147.309 65.0454 147.158 64.387C147.041 63.8823 146.837 63.473 146.546 63.1591C146.254 62.8453 145.906 62.6138 145.502 62.4647C145.109 62.313 144.68 62.2331 144.216 62.225C143.763 62.2144 143.317 62.2599 142.878 62.3616C142.428 62.4658 142.001 62.6168 141.596 62.8147C141.193 63.0235 140.849 63.2825 140.561 63.5917C140.274 63.901 140.068 64.2608 139.943 64.6712C139.829 65.0791 139.832 65.5409 139.95 66.0566C140.12 66.7918 140.458 67.3319 140.965 67.6768C141.474 68.0327 142.099 68.1884 142.84 68.1439L143.083 69.1974C142.591 69.2189 142.125 69.1766 141.684 69.0706C141.257 68.973 140.866 68.8036 140.51 68.5624C140.167 68.3296 139.871 68.0225 139.622 67.6411C139.372 67.2597 139.186 66.8002 139.062 66.2625C138.905 65.5821 138.885 64.9683 139.002 64.4212C139.119 63.874 139.338 63.3956 139.659 62.9858C139.992 62.5736 140.415 62.2271 140.928 61.9464C141.441 61.6657 142.01 61.453 142.636 61.3081C143.228 61.1709 143.812 61.1223 144.387 61.1624C144.976 61.2109 145.517 61.3515 146.01 61.5841C146.502 61.8168 146.925 62.1466 147.277 62.5735C147.643 63.0088 147.9 63.5447 148.046 64.1812C148.274 65.1688 148.221 66.019 147.888 66.7318C147.558 67.4556 146.911 68.01 145.948 68.3948L145.717 67.3908Z" fill="black"/>
<path d="M140.69 75.2707L140.621 74.2596L149.35 73.6632L149.419 74.6743L147.784 74.786L147.787 74.8197C148.502 75.053 149.01 75.3795 149.309 75.7992C149.62 76.2294 149.801 76.8096 149.85 77.5399L148.755 77.6147C148.727 77.041 148.606 76.5753 148.389 76.2176C148.173 75.8599 147.895 75.5798 147.554 75.3774C147.213 75.1862 146.815 75.061 146.36 75.0018C145.916 74.9531 145.453 74.9453 144.97 74.9783L140.69 75.2707Z" fill="black"/>
<path d="M140.402 85.6859C140.464 85.1262 140.613 84.6084 140.848 84.1324C141.083 83.6676 141.407 83.2676 141.822 82.9324C142.236 82.6085 142.739 82.3661 143.33 82.2053C143.921 82.0446 144.598 81.9991 145.361 82.0688C146 82.1273 146.587 82.2658 147.121 82.4843C147.666 82.7038 148.131 83.0007 148.515 83.3751C148.9 83.7495 149.187 84.1998 149.376 84.7259C149.577 85.2532 149.647 85.8532 149.586 86.526C149.524 87.2101 149.346 87.7932 149.054 88.2753C148.772 88.7584 148.409 89.1491 147.963 89.4476C147.529 89.7471 147.024 89.9497 146.449 90.0554C145.873 90.1723 145.266 90.2016 144.627 90.1431C143.931 90.0795 143.312 89.9267 142.769 89.6848C142.225 89.4429 141.768 89.124 141.397 88.7282C141.025 88.3436 140.75 87.8888 140.571 87.3636C140.403 86.8507 140.347 86.2915 140.402 85.6859ZM144.725 89.0665C145.24 89.1137 145.728 89.1018 146.186 89.0306C146.645 88.9595 147.048 88.8211 147.394 88.6154C147.752 88.4106 148.043 88.132 148.268 87.7793C148.492 87.4267 148.628 86.9812 148.677 86.4429C148.725 85.9159 148.66 85.452 148.482 85.0512C148.314 84.6626 148.066 84.3347 147.74 84.0674C147.425 83.8012 147.048 83.5914 146.61 83.4383C146.183 83.2861 145.734 83.1885 145.263 83.1454C144.725 83.0962 144.22 83.1122 143.749 83.1935C143.288 83.287 142.884 83.4423 142.536 83.6592C142.189 83.8762 141.908 84.1615 141.695 84.5152C141.482 84.8688 141.354 85.2868 141.31 85.769C141.262 86.2961 141.322 86.7539 141.49 87.1424C141.669 87.5432 141.921 87.8772 142.247 88.1445C142.574 88.4118 142.95 88.6215 143.377 88.7737C143.805 88.9258 144.254 89.0234 144.725 89.0665Z" fill="black"/>
<path d="M139.338 94.0059L151.162 96.8512L150.926 97.8368L139.102 94.9916L139.338 94.0059Z" fill="black"/>
<path d="M137.642 100.052L149.117 104.08L148.783 105.036L137.308 101.009L137.642 100.052Z" fill="black"/>
<path d="M132.224 112.271L142.123 119.336L139.719 122.725C139.524 123 139.322 123.265 139.115 123.518C138.917 123.778 138.699 124.017 138.462 124.235C138.234 124.459 137.985 124.655 137.714 124.822C137.438 124.998 137.135 125.142 136.808 125.254C136.335 125.414 135.849 125.476 135.351 125.439C134.862 125.408 134.383 125.315 133.913 125.159C133.446 125.02 132.999 124.832 132.573 124.597C132.149 124.377 131.772 124.15 131.442 123.914C131.112 123.679 130.793 123.417 130.487 123.129C130.174 122.85 129.885 122.547 129.62 122.22C129.364 121.899 129.141 121.553 128.949 121.181C128.76 120.825 128.623 120.443 128.538 120.037C128.445 119.624 128.418 119.224 128.457 118.838C128.49 118.46 128.568 118.087 128.692 117.719C128.818 117.366 128.976 117.016 129.168 116.668C129.368 116.327 129.586 115.991 129.82 115.66L132.224 112.271ZM132.357 113.777L130.764 116.023C130.465 116.445 130.207 116.857 129.993 117.257C129.781 117.673 129.638 118.145 129.567 118.675C129.497 119.123 129.529 119.555 129.664 119.969C129.798 120.383 129.988 120.767 130.233 121.122C130.481 121.493 130.772 121.832 131.106 122.139C131.434 122.456 131.767 122.735 132.106 122.977C132.464 123.233 132.842 123.468 133.241 123.684C133.649 123.906 134.064 124.071 134.485 124.177C134.916 124.291 135.347 124.335 135.778 124.311C136.218 124.294 136.654 124.176 137.085 123.957C137.449 123.775 137.798 123.498 138.13 123.126C138.462 122.755 138.775 122.362 139.068 121.949L140.661 119.703L132.357 113.777Z" fill="black"/>
<path d="M120.795 125.703C121.216 125.33 121.674 125.046 122.168 124.851C122.653 124.664 123.162 124.586 123.693 124.617C124.217 124.655 124.751 124.813 125.297 125.092C125.842 125.371 126.373 125.792 126.89 126.357C127.323 126.83 127.664 127.328 127.913 127.849C128.169 128.379 128.313 128.912 128.346 129.448C128.379 129.984 128.289 130.511 128.076 131.029C127.87 131.555 127.519 132.047 127.022 132.505C126.517 132.97 125.995 133.283 125.455 133.444C124.922 133.613 124.391 133.658 123.861 133.58C123.339 133.51 122.83 133.32 122.334 133.012C121.829 132.711 121.361 132.324 120.927 131.851C120.456 131.336 120.1 130.806 119.861 130.261C119.621 129.716 119.497 129.172 119.489 128.629C119.472 128.093 119.573 127.571 119.794 127.061C120.014 126.568 120.347 126.115 120.795 125.703ZM121.722 131.118C122.072 131.5 122.44 131.819 122.827 132.075C123.214 132.331 123.605 132.499 123.999 132.58C124.401 132.669 124.804 132.658 125.206 132.547C125.609 132.437 126.009 132.198 126.406 131.832C126.796 131.473 127.059 131.086 127.196 130.668C127.332 130.267 127.37 129.858 127.308 129.44C127.254 129.031 127.116 128.622 126.895 128.213C126.681 127.813 126.414 127.438 126.095 127.09C125.73 126.691 125.346 126.363 124.943 126.107C124.54 125.866 124.136 125.709 123.734 125.636C123.331 125.563 122.932 125.586 122.537 125.705C122.142 125.824 121.767 126.047 121.411 126.376C121.021 126.734 120.758 127.114 120.622 127.515C120.485 127.933 120.447 128.35 120.509 128.768C120.571 129.185 120.709 129.594 120.922 129.995C121.136 130.395 121.403 130.769 121.722 131.118Z" fill="black"/>
<path d="M109.065 136.109L110.841 143.655L109.955 144.181L107.958 135.194L108.888 134.643L114.258 140.003L114.287 139.985L112.231 132.664L113.277 132.044L120.012 138.224L119.14 138.74L113.405 133.46L115.448 140.927L114.475 141.504L109.065 136.109Z" fill="black"/>
<path d="M101.129 138.295L102.09 137.971L104.866 146.268L103.906 146.592L103.52 145.438C103.272 145.974 102.987 146.438 102.668 146.83C102.337 147.227 101.884 147.522 101.308 147.716C100.795 147.889 100.29 147.958 99.7918 147.924C99.2971 147.9 98.8271 147.72 98.3818 147.382C98.079 147.152 97.858 146.882 97.7187 146.572C97.5724 146.277 97.4421 145.958 97.3277 145.616L95.5107 140.186L96.4711 139.863L98.2828 145.277C98.533 146.025 98.886 146.529 99.3419 146.792C99.7978 147.054 100.41 147.056 101.178 146.797C101.477 146.697 101.733 146.557 101.946 146.378C102.163 146.21 102.348 146.017 102.501 145.799C102.643 145.585 102.751 145.359 102.826 145.12C102.9 144.881 102.939 144.642 102.942 144.403C102.949 144.104 102.922 143.828 102.861 143.575C102.8 143.322 102.721 143.052 102.625 142.763L101.129 138.295Z" fill="black"/>
<defs>
<clipPath id="clip0_202_43">
<rect width="48.0556" height="48.0556" fill="white" transform="translate(50 96) rotate(-74.4247)"/>
</clipPath>
</defs>
</svg>
