<svg xmlns="http://www.w3.org/2000/svg" width="32" height="32" viewBox="0 0 32 32" fill="none">
<path d="M16.1299 3.00586C19.6959 3.00586 20.1409 3.01898 21.54 3.08461C22.9378 3.15023 23.8894 3.36942 24.7268 3.69492C25.593 4.0283 26.3228 4.4798 27.0525 5.20823C27.7199 5.86435 28.2363 6.65801 28.5658 7.53398C28.89 8.37005 29.1105 9.32292 29.1761 10.7207C29.2378 12.1199 29.2549 12.5648 29.2549 16.1309C29.2549 19.6969 29.2418 20.1419 29.1761 21.541C29.1105 22.9388 28.89 23.8904 28.5658 24.7277C28.2373 25.6042 27.7207 26.398 27.0525 27.0535C26.3962 27.7207 25.6026 28.237 24.7268 28.5668C23.8907 28.891 22.9378 29.1115 21.54 29.1771C20.1409 29.2388 19.6959 29.2559 16.1299 29.2559C12.5638 29.2559 12.1189 29.2427 10.7198 29.1771C9.32194 29.1115 8.37038 28.891 7.53301 28.5668C6.65669 28.238 5.86289 27.7215 5.20726 27.0535C4.53973 26.3975 4.02329 25.6038 3.69395 24.7277C3.36845 23.8917 3.14926 22.9388 3.08363 21.541C3.02195 20.1419 3.00488 19.6969 3.00488 16.1309C3.00488 12.5648 3.01801 12.1199 3.08363 10.7207C3.14926 9.32161 3.36845 8.37136 3.69395 7.53398C4.02238 6.65747 4.53894 5.86359 5.20726 5.20823C5.86308 4.54048 6.65682 4.024 7.53301 3.69492C8.37038 3.36942 9.32063 3.15023 10.7198 3.08461C12.1189 3.02292 12.5638 3.00586 16.1299 3.00586ZM16.1299 9.56836C14.3894 9.56836 12.7202 10.2598 11.4895 11.4905C10.2588 12.7212 9.56738 14.3904 9.56738 16.1309C9.56738 17.8713 10.2588 19.5405 11.4895 20.7712C12.7202 22.002 14.3894 22.6934 16.1299 22.6934C17.8704 22.6934 19.5396 22.002 20.7703 20.7712C22.001 19.5405 22.6924 17.8713 22.6924 16.1309C22.6924 14.3904 22.001 12.7212 20.7703 11.4905C19.5396 10.2598 17.8704 9.56836 16.1299 9.56836ZM24.6611 9.24023C24.6611 8.80511 24.4883 8.38781 24.1806 8.08014C23.8729 7.77246 23.4556 7.59961 23.0205 7.59961C22.5854 7.59961 22.1681 7.77246 21.8604 8.08014C21.5527 8.38781 21.3799 8.80511 21.3799 9.24023C21.3799 9.67535 21.5527 10.0927 21.8604 10.4003C22.1681 10.708 22.5854 10.8809 23.0205 10.8809C23.4556 10.8809 23.8729 10.708 24.1806 10.4003C24.4883 10.0927 24.6611 9.67535 24.6611 9.24023ZM16.1299 12.1934C17.1742 12.1934 18.1757 12.6082 18.9141 13.3466C19.6525 14.085 20.0674 15.0866 20.0674 16.1309C20.0674 17.1751 19.6525 18.1767 18.9141 18.9151C18.1757 19.6535 17.1742 20.0684 16.1299 20.0684C15.0856 20.0684 14.0841 19.6535 13.3456 18.9151C12.6072 18.1767 12.1924 17.1751 12.1924 16.1309C12.1924 15.0866 12.6072 14.085 13.3456 13.3466C14.0841 12.6082 15.0856 12.1934 16.1299 12.1934Z" fill="white"/>
</svg>