<svg xmlns="http://www.w3.org/2000/svg" width="31" height="31" viewBox="0 0 31 31" fill="none">
<path d="M9.12496 6.67849C9.12463 7.34683 8.85881 7.98767 8.38598 8.46003C7.91315 8.93238 7.27205 9.19756 6.6037 9.19723C5.93536 9.19689 5.29452 8.93107 4.82216 8.45824C4.34981 7.98542 4.08463 7.34431 4.08496 6.67597C4.0853 6.00762 4.35112 5.36678 4.82394 4.89443C5.29677 4.42207 5.93788 4.15689 6.60622 4.15723C7.27457 4.15756 7.91541 4.42338 8.38776 4.89621C8.86012 5.36904 9.1253 6.01014 9.12496 6.67849ZM9.20056 11.0633H4.16056V26.8385H9.20056V11.0633ZM17.1638 11.0633H12.149V26.8385H17.1134V18.5603C17.1134 13.9487 23.1236 13.5203 23.1236 18.5603V26.8385H28.1006V16.8467C28.1006 9.07249 19.205 9.36229 17.1134 13.1801L17.1638 11.0633Z" fill="white"/>
</svg>