<svg width="121" height="71" viewBox="0 0 121 71" fill="none" xmlns="http://www.w3.org/2000/svg">
<path d="M14.7074 2.40804C13.3353 0.827763 11.1699 0 8.21129 0H0V33.7664H5.57427V20.0169H8.21129C11.1699 20.0169 13.3353 19.1891 14.7074 17.5981V2.40804ZM10.9555 12.008C10.9555 14.416 9.99076 15.233 8.21129 15.233H5.57427V4.81609H8.21129C9.99076 4.81609 10.9555 5.59011 10.9555 8.04115V12.008Z" fill="black"/>
<path d="M29.5662 25.9833V24.0805H30.6382V13.0723C29.9129 11.6066 29.5455 9.98902 29.5662 8.35293C29.5296 6.70832 29.8978 5.08001 30.6382 3.61209V0.623535H25.5999V26.424C25.5999 28.8106 24.603 29.6491 22.9307 29.6491C21.2584 29.6491 20.2722 28.7891 20.2722 26.424V0.623535H15.041V26.08C15.041 31.4551 17.7102 34.4652 22.8342 34.4652C26.6183 34.4652 29.0624 32.8096 30.0808 29.8103C29.6831 28.5746 29.4912 27.2816 29.5127 25.9833" fill="black"/>
<path d="M43.8211 19.4043C42.7237 17.9149 41.4574 16.5584 40.0477 15.3622C36.6174 12.3629 35.524 10.5999 35.524 8.17035C35.524 5.74081 36.4781 4.94529 38.1397 4.94529C39.8012 4.94529 40.7553 5.84831 40.7553 8.23485V9.94414H43.8211V2.41899C43.0861 1.65303 42.1927 1.05782 41.2038 0.675227C40.2148 0.292635 39.1543 0.131944 38.0967 0.204451C33.0049 0.204451 30.3035 3.25751 30.3035 8.50361C30.3035 12.3199 31.7292 15.029 36.1029 18.8883C39.5225 21.8984 40.5623 23.6614 40.5623 26.4134C40.5623 28.8967 39.4903 29.746 37.8609 29.746C36.2315 29.746 35.1488 28.8967 35.1488 26.5209V24.2312H30.207V26.1339C30.207 31.509 32.769 34.5298 37.9038 34.5298C38.9937 34.6 40.0861 34.4348 41.1069 34.0454C42.1277 33.6559 43.0533 33.0513 43.8211 32.2723V19.4043Z" fill="black"/>
<path d="M44.5623 0.247559H49.7935V13.8251H55.3999V0.247559H60.6204V33.6054H55.3999V18.5982H49.7935V33.6054H44.5623V0.247559Z" fill="black"/>
<path d="M57.282 36.7773L42.8359 50.1504L44.0357 51.4538L58.4818 38.0807L57.282 36.7773Z" fill="black"/>
<path d="M77.9629 17.6276L63.123 31.3652L64.3228 32.6686L79.1627 18.931L77.9629 17.6276Z" fill="black"/>
<path d="M104.807 36.1743H110.574V64.4043H120.061V69.1129H104.807V36.1743Z" fill="black"/>
<path d="M74.9086 37.0131C73.6222 35.3791 71.5962 34.519 68.8198 34.519H61.1016V69.4142H66.3328V55.2132H68.7983C71.5747 55.2132 73.6008 54.3532 74.8871 52.7191L74.9086 37.0131ZM71.3925 46.9355C71.3925 49.4296 70.4813 50.2251 68.8198 50.2251H66.3543V39.4749H68.8198C70.4813 39.4749 71.3925 40.2704 71.3925 42.7644V46.9355Z" fill="black"/>
<path d="M75.2969 61.8139V36.3896H80.5281V62.1901C80.5281 64.5659 81.525 65.4152 83.1866 65.4152C84.8481 65.4152 85.8559 64.5552 85.8559 62.1901V36.3896H90.8941V61.8139C90.8941 67.189 88.2249 70.199 83.0901 70.199C77.9554 70.199 75.2969 67.1567 75.2969 61.8139Z" fill="black"/>
<path d="M93.132 36.0454H97.6021V64.2754H102.179L102.051 68.9733H92.7461L93.132 36.0454Z" fill="black"/>
</svg>
