<svg xmlns="http://www.w3.org/2000/svg" width="64" height="63" viewBox="0 0 64 63" fill="none">
<g clip-path="url(#clip0_851_171)">
<path d="M32 0C14.6036 0 0.5 14.1036 0.5 31.5C0.5 48.8964 14.6036 63 32 63C49.3964 63 63.5 48.8964 63.5 31.5C63.5 14.1036 49.3964 0 32 0Z" fill="black"/>
<path d="M33.8874 29.7639L43.7378 18.0264H41.4036L32.8505 28.2179L26.0192 18.0264H18.1401L28.4704 33.4378L18.1401 45.7464H20.4745L29.5067 34.9838L36.7211 45.7464H44.6001L33.8868 29.7639H33.8874ZM21.3156 19.8277H24.901L41.4046 44.0269H37.8192L21.3156 19.8277Z" fill="white"/>
<path d="M20.0298 19.2862L21.2898 20.5462L37.0398 44.4862H42.0798L25.0698 18.6562L20.0298 19.2862Z" fill="white"/>
</g>
<defs>
<clipPath id="clip0_851_171">
<rect width="63" height="63" fill="white" transform="translate(0.5)"/>
</clipPath>
</defs>
</svg>