<svg width="162" height="94" viewBox="0 0 162 94" fill="none" xmlns="http://www.w3.org/2000/svg">
<path d="M19.75 3.22449C17.9074 1.10842 14.9996 0 11.0266 0H0V45.2149H7.48546V26.8036H11.0266C14.9996 26.8036 17.9074 25.6952 19.75 23.5647V3.22449ZM14.7117 16.0793C14.7117 19.3038 13.4162 20.3978 11.0266 20.3978H7.48546V6.44899H11.0266C13.4162 6.44899 14.7117 7.48544 14.7117 10.7675V16.0793Z" fill="white"/>
<path d="M39.7021 34.793V32.245H41.1416V17.5045C40.1676 15.5419 39.6742 13.3758 39.7021 11.185C39.6529 8.9828 40.1473 6.80241 41.1416 4.83679V0.834961H34.3759V35.3832C34.3759 38.5789 33.0372 39.7017 30.7915 39.7017C28.5459 39.7017 27.2215 38.5501 27.2215 35.3832V0.834961H20.1968V34.9225C20.1968 42.1201 23.7811 46.1507 30.6619 46.1507C35.7434 46.1507 39.0255 43.9338 40.393 39.9176C39.8591 38.2629 39.6014 36.5315 39.6301 34.793" fill="white"/>
<path d="M58.8467 25.9833C57.3731 23.9889 55.6726 22.1725 53.7796 20.5707C49.1732 16.5545 47.7049 14.1937 47.7049 10.9404C47.7049 7.68714 48.9861 6.6219 51.2173 6.6219C53.4486 6.6219 54.7297 7.83109 54.7297 11.0268V13.3156H58.8467V3.23906C57.8597 2.21339 56.6601 1.41638 55.332 0.904069C54.004 0.391757 52.5798 0.176584 51.1597 0.273675C44.322 0.273675 40.6945 4.36188 40.6945 11.3867C40.6945 16.4969 42.609 20.1245 48.4822 25.2923C53.0743 29.3229 54.4706 31.6837 54.4706 35.3689C54.4706 38.6941 53.0311 39.8313 50.843 39.8313C48.655 39.8313 47.2011 38.6941 47.2011 35.5128V32.4467H40.5649V34.9946C40.5649 42.1921 44.0054 46.2372 50.9006 46.2372C52.3643 46.3312 53.8311 46.1099 55.2019 45.5884C56.5727 45.0669 57.8156 44.2573 58.8467 43.2142V25.9833Z" fill="white"/>
<path d="M59.8408 0.331055H66.8656V18.512H74.3942V0.331055H81.4046V44.999H74.3942V24.9035H66.8656V44.999H59.8408V0.331055Z" fill="white"/>
<path d="M76.9235 49.2471L57.5244 67.1543L59.1355 68.8996L78.5345 50.9924L76.9235 49.2471Z" fill="white"/>
<path d="M104.693 23.6046L84.7651 42L86.3762 43.7453L106.304 25.3499L104.693 23.6046Z" fill="#EEC627"/>
<path d="M140.741 48.4395H148.485V86.2409H161.225V92.546H140.741V48.4395Z" fill="#EEC627"/>
<path d="M100.593 49.5623C98.8652 47.3743 96.1446 46.2227 92.4162 46.2227H82.0518V92.9491H89.0766V73.9332H92.3874C96.1157 73.9332 98.8364 72.7816 100.564 70.5935L100.593 49.5623ZM95.871 62.849C95.871 66.1886 94.6475 67.2539 92.4162 67.2539H89.1054V52.8588H92.4162C94.6475 52.8588 95.871 53.924 95.871 57.2637V62.849Z" fill="#EEC627"/>
<path d="M101.111 82.7719V48.7275H108.136V83.2757C108.136 86.457 109.475 87.5942 111.706 87.5942C113.937 87.5942 115.291 86.4426 115.291 83.2757V48.7275H122.056V82.7719C122.056 89.9694 118.472 94.0001 111.577 94.0001C104.681 94.0001 101.111 89.9263 101.111 82.7719Z" fill="#EEC627"/>
<path d="M125.064 48.2666H131.067V86.0681H137.214L137.041 92.3587H124.546L125.064 48.2666Z" fill="#EEC627"/>
</svg>
