<svg width="50" height="50" viewBox="0 0 50 50" fill="none" xmlns="http://www.w3.org/2000/svg">
<path d="M7.8125 21.8748C7.3981 21.8748 7.00067 21.7102 6.70765 21.4172C6.41462 21.1241 6.25 20.7267 6.25 20.3123V7.81543C6.25 7.40103 6.41462 7.0036 6.70765 6.71058C7.00067 6.41755 7.3981 6.25293 7.8125 6.25293H20.3125C20.7269 6.25293 21.1243 6.41755 21.4174 6.71058C21.7104 7.0036 21.875 7.40103 21.875 7.81543V20.3123C21.875 20.7267 21.7104 21.1241 21.4174 21.4172C21.1243 21.7102 20.7269 21.8748 20.3125 21.8748H7.8125ZM29.6875 21.8748C29.2731 21.8748 28.8757 21.7102 28.5826 21.4172C28.2896 21.1241 28.125 20.7267 28.125 20.3123V7.81543C28.125 7.40103 28.2896 7.0036 28.5826 6.71058C28.8757 6.41755 29.2731 6.25293 29.6875 6.25293H42.1844C42.5988 6.25293 42.9962 6.41755 43.2892 6.71058C43.5823 7.0036 43.7469 7.40103 43.7469 7.81543V20.3123C43.7469 20.7267 43.5823 21.1241 43.2892 21.4172C42.9962 21.7102 42.5988 21.8748 42.1844 21.8748H29.6875ZM7.8125 43.7498C7.3981 43.7498 7.00067 43.5852 6.70765 43.2922C6.41462 42.9991 6.25 42.6017 6.25 42.1873V29.6873C6.25 29.2729 6.41462 28.8755 6.70765 28.5824C7.00067 28.2894 7.3981 28.1248 7.8125 28.1248H20.3125C20.7269 28.1248 21.1243 28.2894 21.4174 28.5824C21.7104 28.8755 21.875 29.2729 21.875 29.6873V42.1873C21.875 42.6017 21.7104 42.9991 21.4174 43.2922C21.1243 43.5852 20.7269 43.7498 20.3125 43.7498H7.8125ZM29.6875 43.7498C29.2731 43.7498 28.8757 43.5852 28.5826 43.2922C28.2896 42.9991 28.125 42.6017 28.125 42.1873V29.6873C28.125 29.2729 28.2896 28.8755 28.5826 28.5824C28.8757 28.2894 29.2731 28.1248 29.6875 28.1248H42.1844C42.5988 28.1248 42.9962 28.2894 43.2892 28.5824C43.5823 28.8755 43.7469 29.2729 43.7469 29.6873V42.1873C43.7469 42.6017 43.5823 42.9991 43.2892 43.2922C42.9962 43.5852 42.5988 43.7498 42.1844 43.7498H29.6875Z" fill="black"/>
</svg>
