<svg width="370" height="370" viewBox="0 0 370 370" fill="none" xmlns="http://www.w3.org/2000/svg">
<rect width="370" height="370" fill="#462D81"/>
<path d="M84.2217 174.351H92.6133C94.2721 174.351 95.6094 174.82 96.625 175.76C97.6406 176.691 98.1484 178.003 98.1484 179.695C98.1484 181.151 97.6956 182.421 96.79 183.504C95.8844 184.579 94.4922 185.116 92.6133 185.116H86.748V193H84.2217V174.351ZM95.5967 179.708C95.5967 178.337 95.0889 177.406 94.0732 176.915C93.5146 176.653 92.7487 176.521 91.7754 176.521H86.748V182.983H91.7754C92.9095 182.983 93.8278 182.742 94.5303 182.26C95.2412 181.777 95.5967 180.927 95.5967 179.708ZM103.303 179.403V188.43C103.303 189.124 103.413 189.691 103.633 190.131C104.039 190.943 104.797 191.35 105.905 191.35C107.496 191.35 108.58 190.639 109.155 189.217C109.468 188.455 109.625 187.41 109.625 186.081V179.403H111.91V193H109.752L109.777 190.994C109.481 191.51 109.113 191.946 108.673 192.302C107.801 193.013 106.743 193.368 105.499 193.368C103.561 193.368 102.241 192.721 101.538 191.426C101.157 190.732 100.967 189.805 100.967 188.646V179.403H103.303ZM116.849 188.734C116.916 189.496 117.107 190.08 117.42 190.486C117.995 191.223 118.994 191.591 120.416 191.591C121.262 191.591 122.007 191.409 122.65 191.045C123.294 190.673 123.615 190.101 123.615 189.331C123.615 188.747 123.357 188.303 122.841 187.998C122.511 187.812 121.859 187.596 120.886 187.351L119.07 186.894C117.911 186.606 117.056 186.284 116.506 185.929C115.524 185.311 115.033 184.456 115.033 183.364C115.033 182.078 115.494 181.037 116.417 180.241C117.348 179.446 118.596 179.048 120.162 179.048C122.21 179.048 123.687 179.649 124.593 180.851C125.16 181.612 125.435 182.433 125.418 183.313H123.26C123.217 182.797 123.035 182.327 122.714 181.904C122.189 181.303 121.279 181.003 119.984 181.003C119.121 181.003 118.465 181.168 118.017 181.498C117.576 181.828 117.356 182.264 117.356 182.806C117.356 183.398 117.648 183.872 118.232 184.228C118.571 184.439 119.07 184.625 119.73 184.786L121.241 185.154C122.883 185.552 123.983 185.937 124.542 186.31C125.431 186.894 125.875 187.812 125.875 189.064C125.875 190.275 125.414 191.32 124.491 192.2C123.577 193.08 122.181 193.521 120.302 193.521C118.279 193.521 116.844 193.063 115.998 192.149C115.16 191.227 114.712 190.089 114.652 188.734H116.849ZM128.49 174.287H130.775V181.244C131.317 180.559 131.804 180.076 132.235 179.797C132.972 179.314 133.89 179.073 134.99 179.073C136.962 179.073 138.299 179.763 139.002 181.143C139.383 181.896 139.573 182.941 139.573 184.278V193H137.225V184.431C137.225 183.432 137.098 182.7 136.844 182.234C136.429 181.49 135.65 181.117 134.508 181.117C133.56 181.117 132.701 181.443 131.931 182.095C131.16 182.746 130.775 183.978 130.775 185.789V193H128.49V174.287ZM152.104 193H149.057L155.734 183.44L149.476 174.351H152.637L157.397 181.485L162.12 174.351H165.129L158.87 183.44L165.434 193H162.298L157.271 185.332L152.104 193ZM176.732 186.982C176.792 188.04 177.041 188.899 177.481 189.56C178.319 190.795 179.796 191.413 181.912 191.413C182.86 191.413 183.723 191.278 184.502 191.007C186.008 190.482 186.762 189.543 186.762 188.188C186.762 187.173 186.444 186.449 185.81 186.018C185.166 185.594 184.159 185.226 182.788 184.913L180.262 184.342C178.611 183.969 177.443 183.559 176.758 183.11C175.573 182.332 174.98 181.168 174.98 179.619C174.98 177.943 175.56 176.568 176.72 175.493C177.879 174.418 179.521 173.881 181.646 173.881C183.601 173.881 185.259 174.355 186.622 175.303C187.993 176.242 188.679 177.749 188.679 179.822H186.305C186.178 178.824 185.907 178.058 185.492 177.524C184.722 176.551 183.414 176.064 181.569 176.064C180.08 176.064 179.009 176.378 178.357 177.004C177.706 177.63 177.38 178.358 177.38 179.188C177.38 180.102 177.761 180.77 178.522 181.193C179.022 181.464 180.152 181.803 181.912 182.209L184.527 182.806C185.788 183.093 186.762 183.487 187.447 183.986C188.632 184.858 189.225 186.123 189.225 187.782C189.225 189.847 188.471 191.324 186.965 192.213C185.467 193.102 183.723 193.546 181.734 193.546C179.415 193.546 177.6 192.953 176.288 191.769C174.976 190.592 174.333 188.997 174.358 186.982H176.732ZM192.068 174.351H194.265V185.18L200.13 179.403H203.05L197.845 184.494L203.342 193H200.422L196.182 186.145L194.265 187.896V193H192.068V174.351ZM205.119 179.467H207.442V193H205.119V179.467ZM205.119 174.351H207.442V176.94H205.119V174.351ZM210.908 179.403H213.079V181.333C213.722 180.537 214.404 179.966 215.123 179.619C215.842 179.272 216.642 179.099 217.522 179.099C219.452 179.099 220.756 179.771 221.433 181.117C221.805 181.854 221.991 182.907 221.991 184.278V193H219.668V184.431C219.668 183.601 219.545 182.933 219.3 182.425C218.894 181.578 218.157 181.155 217.091 181.155C216.549 181.155 216.105 181.21 215.758 181.32C215.132 181.507 214.581 181.879 214.107 182.438C213.727 182.886 213.477 183.352 213.358 183.834C213.248 184.308 213.193 184.989 213.193 185.878V193H210.908V179.403ZM240.78 173.843C243.142 173.843 244.974 174.465 246.277 175.709C247.581 176.953 248.304 178.367 248.448 179.949H245.985C245.706 178.747 245.147 177.795 244.31 177.093C243.48 176.39 242.312 176.039 240.806 176.039C238.969 176.039 237.484 176.687 236.35 177.981C235.224 179.268 234.661 181.244 234.661 183.91C234.661 186.094 235.169 187.867 236.185 189.229C237.209 190.584 238.732 191.261 240.755 191.261C242.617 191.261 244.035 190.546 245.008 189.115C245.524 188.362 245.909 187.372 246.163 186.145H248.626C248.406 188.108 247.678 189.754 246.442 191.083C244.961 192.683 242.964 193.482 240.45 193.482C238.284 193.482 236.464 192.826 234.991 191.515C233.053 189.78 232.084 187.101 232.084 183.479C232.084 180.728 232.812 178.472 234.268 176.712C235.842 174.799 238.013 173.843 240.78 173.843ZM253.158 189.382C253.158 190.042 253.399 190.562 253.882 190.943C254.364 191.324 254.936 191.515 255.596 191.515C256.4 191.515 257.178 191.328 257.932 190.956C259.201 190.338 259.836 189.327 259.836 187.922V186.081C259.557 186.259 259.197 186.407 258.757 186.525C258.317 186.644 257.885 186.729 257.462 186.779L256.078 186.957C255.249 187.067 254.627 187.241 254.212 187.478C253.509 187.875 253.158 188.51 253.158 189.382ZM258.693 184.761C259.218 184.693 259.569 184.473 259.747 184.101C259.849 183.897 259.899 183.605 259.899 183.225C259.899 182.446 259.62 181.883 259.062 181.536C258.511 181.181 257.72 181.003 256.688 181.003C255.494 181.003 254.648 181.325 254.148 181.968C253.869 182.323 253.687 182.852 253.603 183.555H251.47C251.512 181.879 252.054 180.715 253.095 180.063C254.144 179.403 255.359 179.073 256.738 179.073C258.338 179.073 259.637 179.378 260.636 179.987C261.626 180.597 262.121 181.545 262.121 182.831V190.664C262.121 190.901 262.168 191.091 262.261 191.235C262.362 191.379 262.57 191.451 262.883 191.451C262.984 191.451 263.099 191.447 263.226 191.438C263.353 191.422 263.488 191.4 263.632 191.375V193.063C263.276 193.165 263.006 193.229 262.819 193.254C262.633 193.279 262.379 193.292 262.058 193.292C261.271 193.292 260.699 193.013 260.344 192.454C260.158 192.158 260.026 191.739 259.95 191.197C259.485 191.807 258.816 192.336 257.944 192.784C257.073 193.233 256.112 193.457 255.062 193.457C253.801 193.457 252.769 193.076 251.965 192.314C251.169 191.544 250.771 190.584 250.771 189.433C250.771 188.172 251.165 187.194 251.952 186.5C252.739 185.806 253.772 185.379 255.05 185.218L258.693 184.761ZM265.942 179.403H268.113V181.752C268.291 181.295 268.727 180.741 269.421 180.089C270.115 179.429 270.915 179.099 271.82 179.099C271.863 179.099 271.935 179.103 272.036 179.111C272.138 179.12 272.311 179.137 272.557 179.162V181.574C272.421 181.549 272.294 181.532 272.176 181.523C272.066 181.515 271.943 181.511 271.808 181.511C270.657 181.511 269.772 181.883 269.154 182.628C268.536 183.364 268.228 184.215 268.228 185.18V193H265.942V179.403ZM280.199 179.099C281.164 179.099 282.099 179.327 283.005 179.784C283.91 180.233 284.6 180.817 285.074 181.536C285.531 182.222 285.836 183.021 285.988 183.936C286.124 184.562 286.191 185.561 286.191 186.932H276.226C276.268 188.311 276.594 189.42 277.203 190.258C277.812 191.087 278.756 191.502 280.034 191.502C281.228 191.502 282.18 191.108 282.891 190.321C283.297 189.864 283.585 189.335 283.754 188.734H286.001C285.942 189.234 285.743 189.792 285.404 190.41C285.074 191.02 284.702 191.519 284.287 191.908C283.593 192.585 282.734 193.042 281.71 193.279C281.16 193.415 280.538 193.482 279.844 193.482C278.151 193.482 276.716 192.869 275.54 191.642C274.364 190.406 273.775 188.679 273.775 186.462C273.775 184.278 274.368 182.505 275.553 181.143C276.738 179.78 278.286 179.099 280.199 179.099ZM283.843 185.116C283.75 184.126 283.534 183.335 283.195 182.742C282.569 181.642 281.524 181.092 280.06 181.092C279.01 181.092 278.13 181.473 277.419 182.234C276.708 182.988 276.331 183.948 276.289 185.116H283.843Z" fill="white"/>
</svg>
