<svg xmlns="http://www.w3.org/2000/svg" width="50" height="50" viewBox="0 0 50 50" fill="none">
<path d="M40.1679 37.9569C40.313 38.1021 40.4282 38.2744 40.5068 38.4641C40.5853 38.6538 40.6258 38.8571 40.6258 39.0624C40.6258 39.2677 40.5853 39.471 40.5068 39.6607C40.4282 39.8503 40.313 40.0227 40.1679 40.1679C40.0227 40.313 39.8503 40.4282 39.6607 40.5068C39.471 40.5853 39.2677 40.6258 39.0624 40.6258C38.8571 40.6258 38.6538 40.5853 38.4641 40.5068C38.2744 40.4282 38.1021 40.313 37.9569 40.1679L24.9999 27.2089L12.0429 40.1679C11.7497 40.4611 11.352 40.6258 10.9374 40.6258C10.5228 40.6258 10.1251 40.4611 9.83192 40.1679C9.53873 39.8747 9.37402 39.477 9.37402 39.0624C9.37402 38.6478 9.53873 38.2501 9.83192 37.9569L22.7909 24.9999L9.83192 12.0429C9.53873 11.7497 9.37402 11.352 9.37402 10.9374C9.37402 10.5228 9.53873 10.1251 9.83192 9.83192C10.1251 9.53873 10.5228 9.37402 10.9374 9.37402C11.352 9.37402 11.7497 9.53873 12.0429 9.83192L24.9999 22.7909L37.9569 9.83192C38.2501 9.53873 38.6478 9.37402 39.0624 9.37402C39.477 9.37402 39.8747 9.53873 40.1679 9.83192C40.4611 10.1251 40.6258 10.5228 40.6258 10.9374C40.6258 11.352 40.4611 11.7497 40.1679 12.0429L27.2089 24.9999L40.1679 37.9569Z" fill="white"/>
</svg>